<svg width="97" height="97" viewBox="0 0 97 97" fill="none" xmlns="http://www.w3.org/2000/svg">
<path d="M71.78 50.7956C72.0608 50.3548 72.2502 49.8621 72.337 49.3468C72.4238 48.8314 72.4062 48.3039 72.2854 47.7954C72.1645 47.287 71.9428 46.808 71.6334 46.3868C71.3239 45.9657 70.9331 45.6109 70.484 45.3436L30.796 21.2156C30.1506 20.8249 29.4104 20.6188 28.656 20.6196C26.416 20.6196 24.604 22.3916 24.604 24.5796V72.8236C24.604 73.5636 24.816 74.2876 25.216 74.9156C26.4 76.7716 28.896 77.3396 30.796 76.1836L70.484 52.0596C71.008 51.7396 71.456 51.3036 71.784 50.7916L71.78 50.7956ZM74.764 58.7836L35.08 82.9076C29.38 86.3756 21.88 84.6676 18.336 79.1036C17.1378 77.2281 16.5008 75.0492 16.5 72.8236V24.5836C16.5 18.0196 21.94 12.7036 28.66 12.7036C30.928 12.7036 33.152 13.3236 35.08 14.4956L74.764 38.6236C80.464 42.0876 82.212 49.4076 78.664 54.9756C77.68 56.5196 76.344 57.8236 74.764 58.7836Z" fill="white"/>
</svg>
